<svg width="400" height="400" xmlns="http://www.w3.org/2000/svg">
 <g id="Layer_1">
  <title>Layer 1</title>
  <path stroke-width="0" id="svg_3" d="m200,399.00002c-109.6685,0 -198.49999,-88.8315 -198.49999,-198.50001c0,-109.66852 88.83149,-198.50001 198.49999,-198.50001c109.6685,0 198.49999,88.8315 198.49999,198.50001c0,109.66852 -88.83149,198.50001 -198.49999,198.50001z" opacity="undefined" stroke="#000" fill="#fff"/>
  <g id="svg_1" stroke="null">
   <g class="layer" id="svg_2" stroke="null">
    <title stroke="null">Layer 1</title>
    <g id="svg_7" stroke="null">
     <path fill="#020510" id="svg_10" d="m35.12659,263.08208l23.84434,23.62121c3.2261,3.26042 8.48015,3.2713 11.72953,0.0348l33.42102,-33.31765c3.2261,-3.22562 7.57202,-4.1087 10.79811,-0.88525l38.37236,38.26593c3.2388,3.22562 8.46957,3.22562 11.69566,0l73.29424,-72.11864c3.2261,-3.22562 3.2261,-8.46318 0,-11.69968l-31.60264,-31.58195c-3.2388,-3.2365 -8.48015,-3.22562 -11.70625,0l-35.98243,34.9011c-3.2261,3.2365 -8.02503,3.67804 -11.25324,0.45459l-30.49764,-30.40741c-3.2388,-3.22562 -7.14018,-3.66716 -10.37898,-0.43066l-72.99153,70.80273c-3.21551,3.22562 -1.9454,9.1157 1.25742,12.33915l0,0.02393l0,-0.00218l0.00003,-0.00002z" class="cls-1" stroke="null"/>
     <path fill="#020510" id="svg_9" d="m124.03057,175.10939l23.68134,24.12148c3.2388,3.2365 8.50344,3.22562 11.72953,-0.0348l35.93586,-35.40136c3.2261,-3.24737 8.02503,-3.71284 11.27653,-0.48939l38.19666,37.99622c3.2261,3.2017 8.43358,3.21257 11.65968,0.01088l23.32147,-23.06222c3.26208,-3.22562 3.27267,-8.48711 0.02329,-11.73448l-73.67951,-73.06045c-3.2388,-3.2365 -6.61731,-3.29522 -9.84341,-0.04568l-72.32895,70.02188c-3.21551,3.2365 -3.20281,8.4523 0.02329,11.67575l0.00423,0.00218l-0.00001,-0.00001z" class="cls-1" stroke="null"/>
     <path fill="#020510" id="svg_8" d="m213.49553,263.97821l24.57889,24.56301c3.2388,3.2365 7.17616,3.22562 10.40226,-0.0348l36.39098,-35.8429c3.2261,-3.24737 8.02503,-3.71284 11.27653,-0.48939l35.97184,35.7733c3.2261,3.2017 7.97845,3.65628 11.21725,0.46546l23.32147,-23.06222c3.26208,-3.22562 3.71509,-8.48711 0.46571,-11.73448l-71.45469,-70.83753c-3.2388,-3.2365 -8.49285,-3.22562 -11.71895,0.02393l-70.464,69.51074c-3.21551,3.2365 -3.20281,8.4523 0.02329,11.67575l-0.0127,-0.01088l0.00212,0l0,0.00001z" class="cls-1" stroke="null"/>
    </g>
   </g>
  </g>
 </g>

</svg>